<?xml version="1.0" encoding="utf-8"?>
<!-- Svg Vector Icons : http://www.onlinewebfonts.com/icon -->
<!DOCTYPE svg PUBLIC "-//W3C//DTD SVG 1.1//EN" "http://www.w3.org/Graphics/SVG/1.1/DTD/svg11.dtd">
<svg version="1.1" xmlns="http://www.w3.org/2000/svg" xmlns:xlink="http://www.w3.org/1999/xlink" x="0px" y="0px" viewBox="0 0 1000 1000" enable-background="new 0 0 1000 1000" xml:space="preserve">
<metadata> Svg Vector Icons : http://www.onlinewebfonts.com/icon </metadata>
<g><path d="M500,10C229.4,10,10,229.4,10,500c0,270.6,219.4,490,490,490c270.6,0,490-219.4,490-490C990,229.4,770.6,10,500,10z M500,908.3c-193.5,0-355.7-135.4-397.5-316.4l153.2,64.4c10,50.4,54.6,89.1,109,88.7c60.3-0.6,108.7-49.4,109.1-109.5c0-0.1,0.2-0.1,0.2-0.2l126-93.9c80.7,0.9,144.9-64.1,144.9-143.1c0-79.1-64.2-143.3-143.2-143.3c-78.2,0-141.7,62.7-143.2,140.5l-92.4,129.3c-23.4-0.5-44.4,5.9-62.7,17.9l-209.2-88C117,250.8,290.2,91.7,500,91.7c225.1,0,408.3,183.2,408.3,408.3C908.3,725.1,725.1,908.3,500,908.3z M387.6,578l-54-22.7c10.2-3.8,20.1-5.6,30.1-5.6c46.5,0,84.7,37.8,85.1,84.3c0.4,47.1-37.2,85.5-84.4,85.9c-35.4,0.1-65.4-21-78.7-51l54.1,22.7c31.4,13.2,67.5-1.5,80.7-33C433.8,627.4,419,591.2,387.6,578z M504.4,398.3c0-53.7,43.7-97.4,97.3-97.4c53.7,0,97.3,43.7,97.3,97.4c0,53.7-43.7,97.4-97.3,97.4C548.1,495.6,504.4,451.9,504.4,398.3z M601.8,471.8c-40.6,0-73.6-33-73.6-73.5c0-40.5,33-73.6,73.6-73.6c40.6,0,73.5,33,73.5,73.6C675.3,438.8,642.3,471.8,601.8,471.8z" fill="#ffffff"/></g>
</svg>
