<?xml version="1.0" encoding="iso-8859-1"?>
<!-- Generator: Adobe Illustrator 19.0.0, SVG Export Plug-In . SVG Version: 6.00 Build 0)  -->
<svg version="1.1" id="Layer_1" xmlns="http://www.w3.org/2000/svg" xmlns:xlink="http://www.w3.org/1999/xlink" x="0px" y="0px"
	 viewBox="0 0 512 512" style="enable-background:new 0 0 512 512;" xml:space="preserve">
<g>
	<g>
		<path d="M256,0C126.605,0,21.333,98.891,21.333,220.444c0,34.975,8.942,69.796,25.856,100.699
			c14.514,26.514,34.945,50.307,59.477,69.36v100.163c0,11.782,9.552,21.333,21.333,21.333h256c11.782,0,21.333-9.552,21.333-21.333
			V390.504c24.532-19.054,44.964-42.846,59.477-69.362c16.914-30.902,25.856-65.722,25.856-100.698C490.667,98.891,385.395,0,256,0z
			 M371.753,362.276c-5.696,3.994-9.087,10.512-9.087,17.468v89.59H320v-32.701c0-11.782-9.552-21.333-21.333-21.333
			s-21.333,9.552-21.333,21.333v32.701h-42.667v-32.701c0-11.782-9.552-21.333-21.333-21.333c-11.782,0-21.333,9.552-21.333,21.333
			v32.701h-42.667v-89.59c0-6.956-3.391-13.476-9.087-17.468C91.79,328.303,64,276.608,64,220.444
			c0-98.027,86.13-177.778,192-177.778s192,79.751,192,177.778C448,276.608,420.21,328.304,371.753,362.276z"/>
	</g>
</g>
<g>
	<g>
		<path d="M170.667,156.444c-35.29,0-64,28.71-64,64s28.71,64,64,64s64-28.71,64-64S205.956,156.444,170.667,156.444z
			 M170.667,241.778c-11.763,0-21.333-9.57-21.333-21.333s9.57-21.333,21.333-21.333S192,208.681,192,220.444
			S182.43,241.778,170.667,241.778z"/>
	</g>
</g>
<g>
	<g>
		<path d="M341.333,156.444c-35.29,0-64,28.71-64,64s28.71,64,64,64c35.29,0,64-28.71,64-64S376.623,156.444,341.333,156.444z
			 M341.333,241.778c-11.763,0-21.333-9.57-21.333-21.333s9.57-21.333,21.333-21.333c11.763,0,21.333,9.57,21.333,21.333
			S353.097,241.778,341.333,241.778z"/>
	</g>
</g>
<g>
	<g>
		<path d="M295.922,345.03l-20.841-41.681c-3.614-7.228-11-11.793-19.081-11.793c-8.081,0-15.468,4.565-19.082,11.793
			l-21.333,42.667c-3.307,6.612-2.953,14.467,0.934,20.756c3.887,6.289,10.753,10.118,18.148,10.118h42.667c0.009,0,0.018,0,0.029,0
			c11.782,0,21.333-9.552,21.333-21.333C298.695,351.728,297.687,348.136,295.922,345.03z"/>
	</g>
</g>
<g>
</g>
<g>
</g>
<g>
</g>
<g>
</g>
<g>
</g>
<g>
</g>
<g>
</g>
<g>
</g>
<g>
</g>
<g>
</g>
<g>
</g>
<g>
</g>
<g>
</g>
<g>
</g>
<g>
</g>
</svg>
